<svg width="150" height="150" viewBox="0 0 150 150" fill="none" xmlns="http://www.w3.org/2000/svg">
<circle cx="75" cy="75" r="75" fill="#FF4593"/>
<path d="M124.566 72.6824C122.93 60.0443 116.556 48.5055 106.742 40.4114C96.9274 32.3173 84.4084 28.2753 71.7293 29.107C59.0503 29.9386 47.1627 35.5816 38.4828 44.8888C29.803 54.196 24.9822 66.469 25.0003 79.2134C24.9763 86.0348 26.3545 92.788 29.0488 99.0513C31.7432 105.315 35.6959 110.954 40.6601 115.616C44.4567 119.142 49.4592 121.069 54.6327 120.998H95.3215C100.787 121.011 106.038 118.866 109.94 115.027C115.5 109.601 119.719 102.946 122.258 95.594C124.798 88.2417 125.588 80.3957 124.566 72.6824ZM56.1283 107.046C55.7668 107.459 55.3279 107.795 54.8365 108.037C54.3452 108.279 53.8111 108.422 53.2648 108.457C52.7185 108.492 52.1707 108.418 51.6527 108.241C51.1347 108.063 50.6567 107.785 50.246 107.422C44.5202 102.38 40.4633 95.7069 38.6165 88.2926C36.7696 80.8782 37.2205 73.0753 39.9091 65.9246C42.5976 58.774 47.396 52.6155 53.6642 48.2707C59.9324 43.9259 67.3724 41.6014 74.9917 41.6071C78.1517 41.6081 81.2992 42.0053 84.3609 42.7896C84.891 42.9268 85.389 43.1673 85.8265 43.4976C86.2639 43.8278 86.6322 44.2412 86.9103 44.7142C87.1885 45.1871 87.371 45.7104 87.4475 46.2542C87.524 46.7979 87.493 47.3514 87.3562 47.8832C87.2195 48.4149 86.9796 48.9144 86.6504 49.3531C86.3212 49.7919 85.909 50.1613 85.4374 50.4402C84.9659 50.7192 84.4442 50.9023 83.902 50.979C83.3599 51.0558 82.8081 51.0247 82.278 50.8875C75.9311 49.2375 69.215 49.7828 63.2155 52.4353C57.2159 55.0878 52.2837 59.6924 49.2163 65.5046C46.1488 71.3167 45.1255 77.9967 46.3118 84.4644C47.498 90.9321 50.8245 96.8095 55.7533 101.146C56.1644 101.509 56.5002 101.949 56.7416 102.442C56.9829 102.935 57.1251 103.47 57.1599 104.018C57.1947 104.566 57.1215 105.116 56.9445 105.635C56.7675 106.155 56.4901 106.634 56.1283 107.046ZM74.9917 87.5703C73.7974 87.5861 72.6137 87.3442 71.5207 86.8609C70.4278 86.3776 69.4513 85.6643 68.6573 84.7693C67.8633 83.8744 67.2705 82.8186 66.9189 81.6737C66.5674 80.5287 66.4654 79.3213 66.6199 78.1334C66.7743 76.9454 67.1816 75.8047 67.8142 74.7885C68.4467 73.7723 69.2897 72.9043 70.2859 72.2435C71.2822 71.5827 72.4085 71.1444 73.5884 70.9585C74.7683 70.7725 75.9743 70.8431 77.1247 71.1656L92.8761 55.3668C93.2604 54.9677 93.7201 54.6494 94.2284 54.4304C94.7366 54.2114 95.2833 54.0961 95.8364 54.0913C96.3896 54.0865 96.9382 54.1922 97.4501 54.4023C97.9621 54.6124 98.4273 54.9227 98.8184 55.315C99.2096 55.7073 99.5189 56.1739 99.7284 56.6874C99.9378 57.2009 100.043 57.7511 100.038 58.306C100.034 58.8608 99.9187 59.4091 99.7004 59.9189C99.482 60.4287 99.1647 60.8897 98.7668 61.2752L83.0153 77.074C83.3627 78.3099 83.4179 79.6099 83.1765 80.8709C82.9351 82.132 82.4039 83.3191 81.6249 84.3381C80.846 85.3571 79.8409 86.1798 78.6894 86.7409C77.5379 87.302 76.2718 87.586 74.9917 87.5703ZM99.7374 107.422C98.9045 108.124 97.8312 108.47 96.7467 108.389C95.6622 108.307 94.6526 107.803 93.9336 106.985C93.2145 106.166 92.843 105.098 92.8984 104.009C92.9538 102.92 93.4317 101.895 94.2301 101.155C98.2809 97.5913 101.267 92.9709 102.856 87.8072C104.446 82.6434 104.576 77.1388 103.233 71.9052C102.956 70.8314 103.117 69.6914 103.679 68.7362C104.24 67.781 105.157 67.0887 106.228 66.8117C107.299 66.5346 108.435 66.6955 109.387 67.2589C110.34 67.8223 111.03 68.7421 111.306 69.816C112.088 72.8869 112.485 76.0438 112.485 79.2134C112.479 84.5536 111.339 89.8313 109.141 94.6952C106.943 99.5591 103.737 103.898 99.7374 107.422Z" fill="white"/>
</svg>
