<svg width="80" height="161" viewBox="0 0 80 161" fill="none" xmlns="http://www.w3.org/2000/svg">
<g clip-path="url(#clip0_0_1)">
<g filter="url(#filter0_ii_0_1)">
<path d="M0.000244141 58.9062C0.000244141 87.6251 17.9089 104 40.0002 104C62.0916 104 80.0002 87.6251 80.0002 58.9062C80.0002 30.1874 40.0002 0 40.0002 0C40.0002 0 0.000244141 30.1874 0.000244141 58.9062Z" fill="#FF4593"/>
</g>
<g opacity="0.6" filter="url(#filter1_f_0_1)">
<ellipse rx="11.5109" ry="28.026" transform="matrix(-0.843401 0.537284 0.525814 0.8506 55.4341 33.9866)" fill="#FF4593"/>
</g>
<g opacity="0.5" filter="url(#filter2_f_0_1)">
<ellipse rx="26.0282" ry="15.061" transform="matrix(-0.859187 0.511662 0.50034 0.865829 49.9462 84.6421)" fill="#FF4593"/>
</g>
<g opacity="0.7" filter="url(#filter3_f_0_1)">
<path d="M8.9008 37.5254C2.27464 49.7347 1.12455 59.6496 2.60885 60.4798C4.09315 61.3099 8.17336 51.1319 14.7995 38.9226C21.4257 26.7133 32.2103 12.6067 30.726 11.7766C29.2417 10.9464 15.527 25.3161 8.9008 37.5254Z" fill="#FF4593"/>
</g>
<ellipse rx="3.93248" ry="3.99206" transform="matrix(-1 0 0 1 55.5006 60.2802)" fill="black"/>
<ellipse rx="1.57299" ry="1.59697" transform="matrix(-1 0 0 1 55.5071 60.597)" fill="white"/>
<ellipse rx="3.93248" ry="3.99206" transform="matrix(-1 0 0 1 24.0409 60.2802)" fill="black"/>
<ellipse rx="1.57299" ry="1.59697" transform="matrix(-1 0 0 1 24.0071 60.597)" fill="white"/>
<path d="M32 72.2117C32 70.4379 35.5817 68 40 68C44.4183 68 48 70.4379 48 72.2117C48 73.9854 44.4183 71.2117 40 71.2117C35.5817 71.2117 32 73.9854 32 72.2117Z" fill="black"/>
<ellipse rx="2.75273" ry="1.19773" transform="matrix(-1 0 0 1 53.1411 68.6636)" fill="#FF9292"/>
<ellipse rx="2.75273" ry="1.19773" transform="matrix(-1 0 0 1 26.4003 68.6636)" fill="#FF9292"/>
</g>
<ellipse cx="40.0605" cy="117" rx="39.9394" ry="8" fill="url(#paint3_radial_0_1)"/>
<path d="M17.4844 148.625V160H15.3359V148.625H17.4844ZM22.0703 153.539V155.234H16.9219V153.539H22.0703ZM22.6719 148.625V150.32H16.9219V148.625H22.6719ZM27.6016 160.156C26.9609 160.156 26.3854 160.052 25.875 159.844C25.3646 159.635 24.9297 159.346 24.5703 158.977C24.2161 158.602 23.9427 158.167 23.75 157.672C23.5625 157.172 23.4688 156.635 23.4688 156.062V155.75C23.4688 155.099 23.5625 154.508 23.75 153.977C23.9375 153.44 24.2031 152.979 24.5469 152.594C24.8906 152.208 25.3021 151.911 25.7812 151.703C26.2604 151.495 26.7891 151.391 27.3672 151.391C27.9661 151.391 28.4948 151.492 28.9531 151.695C29.4115 151.893 29.7943 152.174 30.1016 152.539C30.4089 152.904 30.6406 153.341 30.7969 153.852C30.9531 154.357 31.0312 154.917 31.0312 155.531V156.398H24.4062V154.977H29V154.82C28.9896 154.492 28.9271 154.193 28.8125 153.922C28.6979 153.646 28.5208 153.427 28.2812 153.266C28.0417 153.099 27.7318 153.016 27.3516 153.016C27.0443 153.016 26.776 153.083 26.5469 153.219C26.3229 153.349 26.1354 153.536 25.9844 153.781C25.8385 154.021 25.7292 154.307 25.6562 154.641C25.5833 154.974 25.5469 155.344 25.5469 155.75V156.062C25.5469 156.417 25.5938 156.745 25.6875 157.047C25.7865 157.349 25.9297 157.612 26.1172 157.836C26.3099 158.055 26.5391 158.227 26.8047 158.352C27.0755 158.471 27.3828 158.531 27.7266 158.531C28.1589 158.531 28.5495 158.448 28.8984 158.281C29.2526 158.109 29.5599 157.857 29.8203 157.523L30.8594 158.602C30.6823 158.862 30.4427 159.112 30.1406 159.352C29.8438 159.591 29.4844 159.786 29.0625 159.938C28.6406 160.083 28.1536 160.156 27.6016 160.156ZM34.4688 153.281V160H32.4062V151.547H34.3516L34.4688 153.281ZM34.1641 155.469H33.5312C33.5312 154.88 33.6016 154.339 33.7422 153.844C33.888 153.349 34.1016 152.919 34.3828 152.555C34.6641 152.185 35.0104 151.898 35.4219 151.695C35.8385 151.492 36.3203 151.391 36.8672 151.391C37.2474 151.391 37.5964 151.448 37.9141 151.562C38.2318 151.672 38.5052 151.846 38.7344 152.086C38.9688 152.32 39.1484 152.628 39.2734 153.008C39.3984 153.383 39.4609 153.833 39.4609 154.359V160H37.3984V154.57C37.3984 154.174 37.3411 153.865 37.2266 153.641C37.1172 153.417 36.9583 153.26 36.75 153.172C36.5417 153.078 36.2917 153.031 36 153.031C35.6771 153.031 35.3984 153.096 35.1641 153.227C34.9349 153.352 34.7448 153.526 34.5938 153.75C34.4479 153.974 34.3385 154.232 34.2656 154.523C34.1979 154.815 34.1641 155.13 34.1641 155.469ZM39.3047 155.086L38.4531 155.242C38.4583 154.711 38.5312 154.214 38.6719 153.75C38.8125 153.281 39.0182 152.872 39.2891 152.523C39.5651 152.169 39.9062 151.893 40.3125 151.695C40.724 151.492 41.1979 151.391 41.7344 151.391C42.151 151.391 42.526 151.451 42.8594 151.57C43.1979 151.685 43.487 151.87 43.7266 152.125C43.9661 152.375 44.1484 152.701 44.2734 153.102C44.4036 153.503 44.4688 153.992 44.4688 154.57V160H42.3906V154.562C42.3906 154.151 42.3333 153.836 42.2188 153.617C42.1094 153.398 41.9505 153.247 41.7422 153.164C41.5339 153.076 41.2891 153.031 41.0078 153.031C40.7214 153.031 40.4714 153.086 40.2578 153.195C40.0495 153.299 39.8724 153.445 39.7266 153.633C39.5859 153.82 39.4792 154.039 39.4062 154.289C39.3385 154.534 39.3047 154.799 39.3047 155.086ZM50.9766 158.203V154.305C50.9766 154.018 50.9271 153.771 50.8281 153.562C50.7292 153.354 50.5781 153.193 50.375 153.078C50.1719 152.964 49.9141 152.906 49.6016 152.906C49.3255 152.906 49.0833 152.953 48.875 153.047C48.6719 153.141 48.5156 153.273 48.4062 153.445C48.2969 153.612 48.2422 153.805 48.2422 154.023H46.1719C46.1719 153.674 46.2552 153.344 46.4219 153.031C46.5885 152.714 46.8255 152.432 47.1328 152.188C47.4453 151.938 47.8177 151.742 48.25 151.602C48.6875 151.461 49.1771 151.391 49.7188 151.391C50.3594 151.391 50.9297 151.5 51.4297 151.719C51.9349 151.932 52.3307 152.255 52.6172 152.688C52.9089 153.12 53.0547 153.664 53.0547 154.32V158.008C53.0547 158.43 53.0807 158.792 53.1328 159.094C53.1901 159.391 53.2734 159.648 53.3828 159.867V160H51.2812C51.1823 159.786 51.1068 159.516 51.0547 159.188C51.0026 158.854 50.9766 158.526 50.9766 158.203ZM51.2656 154.852L51.2812 156.078H49.9766C49.6536 156.078 49.3698 156.112 49.125 156.18C48.8802 156.242 48.6797 156.336 48.5234 156.461C48.3672 156.581 48.25 156.727 48.1719 156.898C48.0938 157.065 48.0547 157.255 48.0547 157.469C48.0547 157.677 48.1016 157.865 48.1953 158.031C48.2943 158.198 48.4349 158.331 48.6172 158.43C48.8047 158.523 49.0234 158.57 49.2734 158.57C49.638 158.57 49.9557 158.497 50.2266 158.352C50.4974 158.201 50.7083 158.018 50.8594 157.805C51.0104 157.591 51.0911 157.388 51.1016 157.195L51.6953 158.086C51.6224 158.299 51.513 158.526 51.3672 158.766C51.2214 159.005 51.0339 159.229 50.8047 159.438C50.5755 159.646 50.2995 159.818 49.9766 159.953C49.6536 160.089 49.2786 160.156 48.8516 160.156C48.3047 160.156 47.8151 160.047 47.3828 159.828C46.9505 159.609 46.6094 159.31 46.3594 158.93C46.1094 158.549 45.9844 158.117 45.9844 157.633C45.9844 157.185 46.0677 156.789 46.2344 156.445C46.401 156.102 46.6484 155.812 46.9766 155.578C47.3047 155.339 47.7109 155.159 48.1953 155.039C48.6849 154.914 49.2448 154.852 49.875 154.852H51.2656ZM57.1016 148V160H55.0312V148H57.1016ZM62.8672 160.156C62.2266 160.156 61.651 160.052 61.1406 159.844C60.6302 159.635 60.1953 159.346 59.8359 158.977C59.4818 158.602 59.2083 158.167 59.0156 157.672C58.8281 157.172 58.7344 156.635 58.7344 156.062V155.75C58.7344 155.099 58.8281 154.508 59.0156 153.977C59.2031 153.44 59.4688 152.979 59.8125 152.594C60.1562 152.208 60.5677 151.911 61.0469 151.703C61.526 151.495 62.0547 151.391 62.6328 151.391C63.2318 151.391 63.7604 151.492 64.2188 151.695C64.6771 151.893 65.0599 152.174 65.3672 152.539C65.6745 152.904 65.9062 153.341 66.0625 153.852C66.2188 154.357 66.2969 154.917 66.2969 155.531V156.398H59.6719V154.977H64.2656V154.82C64.2552 154.492 64.1927 154.193 64.0781 153.922C63.9635 153.646 63.7865 153.427 63.5469 153.266C63.3073 153.099 62.9974 153.016 62.6172 153.016C62.3099 153.016 62.0417 153.083 61.8125 153.219C61.5885 153.349 61.401 153.536 61.25 153.781C61.1042 154.021 60.9948 154.307 60.9219 154.641C60.849 154.974 60.8125 155.344 60.8125 155.75V156.062C60.8125 156.417 60.8594 156.745 60.9531 157.047C61.0521 157.349 61.1953 157.612 61.3828 157.836C61.5755 158.055 61.8047 158.227 62.0703 158.352C62.3411 158.471 62.6484 158.531 62.9922 158.531C63.4245 158.531 63.8151 158.448 64.1641 158.281C64.5182 158.109 64.8255 157.857 65.0859 157.523L66.125 158.602C65.9479 158.862 65.7083 159.112 65.4062 159.352C65.1094 159.591 64.75 159.786 64.3281 159.938C63.9062 160.083 63.4193 160.156 62.8672 160.156Z" fill="#FF4593" fill-opacity="0.5"/>
<defs>
<filter id="filter0_ii_0_1" x="0.000244141" y="-9.26667" width="80" height="122.533" filterUnits="userSpaceOnUse" color-interpolation-filters="sRGB">
<feFlood flood-opacity="0" result="BackgroundImageFix"/>
<feBlend mode="normal" in="SourceGraphic" in2="BackgroundImageFix" result="shape"/>
<feColorMatrix in="SourceAlpha" type="matrix" values="0 0 0 0 0 0 0 0 0 0 0 0 0 0 0 0 0 0 127 0" result="hardAlpha"/>
<feOffset dy="9.26667"/>
<feGaussianBlur stdDeviation="4.63333"/>
<feComposite in2="hardAlpha" operator="arithmetic" k2="-1" k3="1"/>
<feColorMatrix type="matrix" values="0 0 0 0 1 0 0 0 0 0.270588 0 0 0 0 0.576471 0 0 0 0.5 0"/>
<feBlend mode="normal" in2="shape" result="effect1_innerShadow_0_1"/>
<feColorMatrix in="SourceAlpha" type="matrix" values="0 0 0 0 0 0 0 0 0 0 0 0 0 0 0 0 0 0 127 0" result="hardAlpha"/>
<feOffset dy="-9.26667"/>
<feGaussianBlur stdDeviation="4.63333"/>
<feComposite in2="hardAlpha" operator="arithmetic" k2="-1" k3="1"/>
<feColorMatrix type="matrix" values="0 0 0 0 1 0 0 0 0 0.270588 0 0 0 0 0.576471 0 0 0 0.5 0"/>
<feBlend mode="normal" in2="effect1_innerShadow_0_1" result="effect2_innerShadow_0_1"/>
</filter>
<filter id="filter1_f_0_1" x="28.7852" y="0.352509" width="53.2979" height="67.2682" filterUnits="userSpaceOnUse" color-interpolation-filters="sRGB">
<feFlood flood-opacity="0" result="BackgroundImageFix"/>
<feBlend mode="normal" in="SourceGraphic" in2="BackgroundImageFix" result="shape"/>
<feGaussianBlur stdDeviation="4.5" result="effect1_foregroundBlur_0_1"/>
</filter>
<filter id="filter2_f_0_1" x="17.3413" y="57.0032" width="65.21" height="55.2778" filterUnits="userSpaceOnUse" color-interpolation-filters="sRGB">
<feFlood flood-opacity="0" result="BackgroundImageFix"/>
<feBlend mode="normal" in="SourceGraphic" in2="BackgroundImageFix" result="shape"/>
<feGaussianBlur stdDeviation="4.5" result="effect1_foregroundBlur_0_1"/>
</filter>
<filter id="filter3_f_0_1" x="-6.96606" y="2.74222" width="46.8306" height="66.785" filterUnits="userSpaceOnUse" color-interpolation-filters="sRGB">
<feFlood flood-opacity="0" result="BackgroundImageFix"/>
<feBlend mode="normal" in="SourceGraphic" in2="BackgroundImageFix" result="shape"/>
<feGaussianBlur stdDeviation="4.5" result="effect1_foregroundBlur_0_1"/>
</filter>
<radialGradient id="paint0_radial_0_1" cx="0" cy="0" r="1" gradientUnits="userSpaceOnUse" gradientTransform="translate(11.5109 28.026) rotate(90) scale(28.026 11.5109)">
<stop stop-color="white"/>
<stop offset="1" stop-color="white" stop-opacity="0"/>
</radialGradient>
<radialGradient id="paint1_radial_0_1" cx="0" cy="0" r="1" gradientUnits="userSpaceOnUse" gradientTransform="translate(22.7002 21.6265) rotate(-87.8525) scale(19.5817 33.8385)">
<stop stop-color="white"/>
<stop offset="1" stop-color="white" stop-opacity="0"/>
</radialGradient>
<radialGradient id="paint2_radial_0_1" cx="0" cy="0" r="1" gradientUnits="userSpaceOnUse" gradientTransform="translate(-0.345871 31.9781) rotate(21.3191) scale(42.8941 102.026)">
<stop stop-color="white"/>
<stop offset="1" stop-color="white" stop-opacity="0"/>
</radialGradient>
<radialGradient id="paint3_radial_0_1" cx="0" cy="0" r="1" gradientUnits="userSpaceOnUse" gradientTransform="translate(40.0605 117) rotate(90) scale(8 39.9394)">
<stop stop-color="#C4C4C4"/>
<stop offset="1" stop-color="#C4C4C4" stop-opacity="0.1"/>
</radialGradient>
<clipPath id="clip0_0_1">
<rect width="79.8788" height="104" fill="white" transform="matrix(-1 0 0 1 79.8789 0)"/>
</clipPath>
</defs>
</svg>
