<svg width="150" height="150" viewBox="0 0 150 150" fill="none" xmlns="http://www.w3.org/2000/svg">
<path d="M75 76.5V150C33.5786 150 0 116.421 0 75C0 33.5786 33.5786 0 75 0V76.5Z" fill="#1BAEEE"/>
<path d="M75 76.5V150C116.421 150 150 116.421 150 75C150 33.5786 116.421 0 75 0V76.5Z" fill="#FF4593"/>
<g clip-path="url(#clip0_0_99)">
<path d="M137.844 87.7988C138.104 89.295 138.033 90.8301 137.638 92.2963C137.242 93.7625 136.53 95.1245 135.553 96.2868C134.575 97.4491 133.356 98.3836 131.979 99.0248C130.602 99.666 129.102 99.9984 127.583 99.9988H121.333C120.781 99.9988 120.251 99.7793 119.86 99.3886C119.469 98.9979 119.25 98.468 119.25 97.9154V92.5196C117.262 93.3167 115.142 93.7336 113 93.7488C110.857 93.7268 108.737 93.3028 106.75 92.4988V97.9154C106.75 98.468 106.53 98.9979 106.14 99.3886C105.749 99.7793 105.219 99.9988 104.667 99.9988H98.4166C96.898 99.9984 95.3977 99.666 94.021 99.0248C92.6443 98.3836 91.4245 97.4491 90.447 96.2868C89.4695 95.1245 88.758 93.7625 88.3623 92.2963C87.9666 90.8301 87.8962 89.295 88.1562 87.7988L88.7812 84.1738C88.9891 82.9681 89.5533 81.8524 90.4012 80.9704C91.2491 80.0885 92.3418 79.4807 93.5383 79.2256C94.7348 78.9705 95.9803 79.0796 97.1142 79.539C98.2481 79.9984 99.2184 80.7869 99.9 81.8029C102.533 85.6738 107.602 89.5821 113 89.5821C119.521 89.5821 125.946 83.7925 127.854 78.3821C128.007 77.9754 128.28 77.6248 128.637 77.3767C128.994 77.1286 129.418 76.9946 129.852 76.9925L130.752 77.0071C131.155 77.0121 131.556 76.9368 131.93 76.7857C132.304 76.6346 132.644 76.4106 132.931 76.1268C133.218 75.843 133.445 75.505 133.6 75.1326C133.755 74.7601 133.834 74.3605 133.833 73.9571C133.833 73.2264 133.576 72.5191 133.108 71.9581C132.64 71.397 131.99 71.0178 131.271 70.8863C130.828 70.8059 130.422 70.584 130.116 70.2538C129.809 69.9236 129.618 69.503 129.571 69.055C129.294 66.4208 128.391 63.8912 126.937 61.6776C125.482 59.4641 123.519 57.6312 121.21 56.3321C120.621 58.1763 119.834 59.9512 118.862 61.6259C116.158 65.4595 112.63 68.6393 108.537 70.9321C109.161 71.0853 109.723 71.427 110.146 71.9108C110.568 72.3946 110.832 72.9969 110.9 73.6357C110.968 74.2745 110.837 74.9188 110.526 75.4808C110.215 76.0429 109.738 76.4953 109.161 76.7766C108.583 77.0578 107.933 77.1542 107.298 77.0527C106.664 76.9511 106.076 76.6565 105.615 76.209C105.155 75.7614 104.843 75.1827 104.723 74.5516C104.602 73.9205 104.68 73.2677 104.944 72.6821C100.154 74.6217 94.9746 75.4067 89.825 74.9738C89.3958 74.9162 88.9951 74.7264 88.6788 74.4306C88.3625 74.1348 88.1462 73.7478 88.06 73.3234C87.9739 72.899 88.0221 72.4583 88.198 72.0626C88.374 71.6669 88.6688 71.3358 89.0416 71.1154C90.3011 69.6865 91.2383 68.0033 91.7896 66.18C94.5083 59.7363 98.625 49.9988 113 49.9988C117.905 49.9872 122.656 51.7114 126.412 54.8662C130.167 58.021 132.686 62.403 133.521 67.2363C134.847 67.7905 135.979 68.7241 136.776 69.9199C137.573 71.1156 137.999 72.5202 138 73.9571C137.996 75.6883 137.364 77.3593 136.221 78.6592C136.235 78.7134 136.273 78.7571 136.283 78.8154L137.844 87.7988ZM121.333 73.9571C121.333 73.339 121.15 72.7349 120.807 72.221C120.463 71.707 119.975 71.3065 119.404 71.07C118.833 70.8335 118.205 70.7716 117.599 70.8922C116.992 71.0127 116.436 71.3104 115.999 71.7474C115.562 72.1844 115.264 72.7413 115.143 73.3475C115.023 73.9536 115.085 74.582 115.321 75.153C115.558 75.724 115.958 76.2121 116.472 76.5555C116.986 76.8988 117.59 77.0821 118.208 77.0821C119.037 77.0821 119.832 76.7529 120.418 76.1668C121.004 75.5808 121.333 74.7859 121.333 73.9571Z" fill="white"/>
</g>
<g clip-path="url(#clip1_0_99)">
<path d="M63.0001 73.9592C63 75.8093 62.2966 77.5902 61.0324 78.941C59.7682 80.2918 58.0378 81.1116 56.1918 81.2342C54.0865 85.6393 50.6337 89.2599 46.3335 91.5717V97.9176C46.3335 98.4701 46.114 99 45.7233 99.3907C45.3326 99.7814 44.8027 100.001 44.2501 100.001H31.7501C31.1976 100.001 30.6677 99.7814 30.277 99.3907C29.8863 99 29.6668 98.4701 29.6668 97.9176V91.5697C25.6523 89.384 22.3635 86.0735 20.2043 82.0447C19.9501 81.554 19.9013 80.9825 20.0685 80.4558C20.2357 79.9292 20.6053 79.4905 21.096 79.2363C21.5866 78.9822 22.1581 78.9333 22.6848 79.1005C23.2115 79.2678 23.6501 79.6373 23.9043 80.128C26.3335 84.828 31.9585 89.5842 38.0001 89.5842C44.5189 89.5842 50.9418 83.7947 52.8501 78.3842C53.0126 77.9178 53.3363 77.5248 53.7631 77.2761C54.1898 77.0274 54.6913 76.9394 55.1772 77.028C55.3525 77.0609 55.5302 77.0797 55.7085 77.0842C56.4818 77.075 57.2243 76.7793 57.7923 76.2543C58.3602 75.7294 58.7133 75.0124 58.7833 74.2422C58.8533 73.472 58.6352 72.7031 58.1711 72.0844C57.707 71.4657 57.03 71.041 56.271 70.8926C55.828 70.8123 55.423 70.5907 55.1165 70.2609C54.8101 69.9312 54.6187 69.511 54.571 69.0634C54.2954 66.4282 53.3925 63.8973 51.9379 61.6826C50.4834 59.468 48.5195 57.634 46.2106 56.3342C45.6217 58.1789 44.8338 59.954 43.8606 61.628C41.1564 65.4616 37.6285 68.6414 33.5356 70.9342C34.1597 71.0871 34.7215 71.4285 35.1445 71.9122C35.5675 72.3958 35.8312 72.9981 35.8996 73.637C35.968 74.2759 35.8377 74.9203 35.5266 75.4825C35.2156 76.0448 34.7387 76.4974 34.1611 76.7788C33.5835 77.0603 32.9332 77.1568 32.2987 77.0553C31.6642 76.9538 31.0764 76.6592 30.6154 76.2116C30.1545 75.764 29.8426 75.1852 29.7225 74.554C29.6023 73.9228 29.6796 73.2699 29.9439 72.6842C25.1539 74.6239 19.9747 75.4089 14.8251 74.9759C14.3959 74.9184 13.9953 74.7285 13.679 74.4327C13.3627 74.137 13.1464 73.75 13.0602 73.3255C12.974 72.9011 13.0223 72.4604 13.1982 72.0647C13.3741 71.669 13.669 71.3379 14.0418 71.1176C15.3013 69.6886 16.2384 68.0054 16.7897 66.1822C19.5085 59.7384 23.6251 50.0009 38.0001 50.0009C42.9051 49.99 47.6558 51.7145 51.4117 54.8691C55.1676 58.0238 57.6866 62.4053 58.5231 67.2384C59.8484 67.793 60.9804 68.7267 61.777 69.9224C62.5735 71.1182 62.999 72.5225 63.0001 73.9592V73.9592ZM46.3335 73.9592C46.3335 73.3412 46.1502 72.737 45.8068 72.2231C45.4634 71.7092 44.9754 71.3086 44.4044 71.0721C43.8333 70.8356 43.205 70.7737 42.5988 70.8943C41.9926 71.0149 41.4358 71.3125 40.9988 71.7495C40.5617 72.1866 40.2641 72.7434 40.1435 73.3496C40.0229 73.9558 40.0848 74.5841 40.3214 75.1551C40.5579 75.7261 40.9584 76.2142 41.4723 76.5576C41.9862 76.901 42.5904 77.0842 43.2085 77.0842C44.0373 77.0842 44.8321 76.755 45.4182 76.169C46.0042 75.5829 46.3335 74.788 46.3335 73.9592Z" fill="white"/>
</g>
<defs>
<clipPath id="clip0_0_99">
<rect width="50" height="50" fill="white" transform="translate(88 50)"/>
</clipPath>
<clipPath id="clip1_0_99">
<rect width="50" height="50" fill="white" transform="translate(13 50)"/>
</clipPath>
</defs>
</svg>
