<svg width="177" height="20" viewBox="0 0 177 20" fill="none" xmlns="http://www.w3.org/2000/svg">
<path d="M8.9668 10.2832H11.8867C11.8281 11.2402 11.5645 12.0898 11.0957 12.832C10.6335 13.5742 9.98568 14.1536 9.15234 14.5703C8.32552 14.987 7.32943 15.1953 6.16406 15.1953C5.2526 15.1953 4.43555 15.0391 3.71289 14.7266C2.99023 14.4076 2.37174 13.9518 1.85742 13.3594C1.34961 12.7669 0.96224 12.0508 0.695312 11.2109C0.428385 10.3711 0.294922 9.43034 0.294922 8.38867V7.40234C0.294922 6.36068 0.431641 5.41992 0.705078 4.58008C0.985026 3.73372 1.38216 3.01432 1.89648 2.42188C2.41732 1.82943 3.03906 1.3737 3.76172 1.05469C4.48438 0.735677 5.29167 0.576172 6.18359 0.576172C7.36849 0.576172 8.36784 0.791016 9.18164 1.2207C10.002 1.65039 10.6367 2.24284 11.0859 2.99805C11.5417 3.75326 11.8151 4.61263 11.9062 5.57617H8.97656C8.94401 5.00326 8.83008 4.51823 8.63477 4.12109C8.43945 3.71745 8.14323 3.41471 7.74609 3.21289C7.35547 3.00456 6.83464 2.90039 6.18359 2.90039C5.69531 2.90039 5.26888 2.99154 4.9043 3.17383C4.53971 3.35612 4.23372 3.63281 3.98633 4.00391C3.73893 4.375 3.55339 4.84375 3.42969 5.41016C3.3125 5.97005 3.25391 6.6276 3.25391 7.38281V8.38867C3.25391 9.12435 3.30924 9.77214 3.41992 10.332C3.5306 10.8854 3.69987 11.3542 3.92773 11.7383C4.16211 12.1159 4.46159 12.4023 4.82617 12.5977C5.19727 12.7865 5.64323 12.8809 6.16406 12.8809C6.77604 12.8809 7.2806 12.7832 7.67773 12.5879C8.07487 12.3926 8.3776 12.1029 8.58594 11.7188C8.80078 11.3346 8.92773 10.8561 8.9668 10.2832ZM16.3789 0V15H13.5664V0H16.3789ZM15.9785 9.3457H15.207C15.2135 8.61003 15.3112 7.93294 15.5 7.31445C15.6888 6.68945 15.959 6.14909 16.3105 5.69336C16.6621 5.23112 17.082 4.87305 17.5703 4.61914C18.0651 4.36523 18.612 4.23828 19.2109 4.23828C19.7318 4.23828 20.2038 4.31315 20.627 4.46289C21.0566 4.60612 21.4245 4.84049 21.7305 5.16602C22.043 5.48503 22.2839 5.90495 22.4531 6.42578C22.6224 6.94661 22.707 7.57812 22.707 8.32031V15H19.875V8.30078C19.875 7.83203 19.8066 7.46419 19.6699 7.19727C19.5397 6.92383 19.3477 6.73177 19.0938 6.62109C18.8464 6.50391 18.5404 6.44531 18.1758 6.44531C17.7721 6.44531 17.4271 6.52018 17.1406 6.66992C16.8607 6.81966 16.6361 7.02799 16.4668 7.29492C16.2975 7.55534 16.1738 7.86133 16.0957 8.21289C16.0176 8.56445 15.9785 8.94206 15.9785 9.3457ZM24.3965 9.82422V9.61914C24.3965 8.8444 24.5072 8.13151 24.7285 7.48047C24.9499 6.82292 25.2721 6.25326 25.6953 5.77148C26.1185 5.28971 26.6393 4.91536 27.2578 4.64844C27.8763 4.375 28.5859 4.23828 29.3867 4.23828C30.1875 4.23828 30.9004 4.375 31.5254 4.64844C32.1504 4.91536 32.6745 5.28971 33.0977 5.77148C33.5273 6.25326 33.8529 6.82292 34.0742 7.48047C34.2956 8.13151 34.4062 8.8444 34.4062 9.61914V9.82422C34.4062 10.5924 34.2956 11.3053 34.0742 11.9629C33.8529 12.6139 33.5273 13.1836 33.0977 13.6719C32.6745 14.1536 32.1536 14.528 31.5352 14.7949C30.9167 15.0618 30.207 15.1953 29.4062 15.1953C28.6055 15.1953 27.8926 15.0618 27.2676 14.7949C26.6491 14.528 26.125 14.1536 25.6953 13.6719C25.2721 13.1836 24.9499 12.6139 24.7285 11.9629C24.5072 11.3053 24.3965 10.5924 24.3965 9.82422ZM27.209 9.61914V9.82422C27.209 10.2669 27.248 10.6803 27.3262 11.0645C27.4043 11.4486 27.528 11.7871 27.6973 12.0801C27.873 12.3665 28.1009 12.5911 28.3809 12.7539C28.6608 12.9167 29.0026 12.998 29.4062 12.998C29.7969 12.998 30.1322 12.9167 30.4121 12.7539C30.6921 12.5911 30.9167 12.3665 31.0859 12.0801C31.2552 11.7871 31.3789 11.4486 31.457 11.0645C31.5417 10.6803 31.584 10.2669 31.584 9.82422V9.61914C31.584 9.18945 31.5417 8.78581 31.457 8.4082C31.3789 8.02409 31.252 7.68555 31.0762 7.39258C30.9069 7.0931 30.6823 6.85872 30.4023 6.68945C30.1224 6.52018 29.7839 6.43555 29.3867 6.43555C28.9896 6.43555 28.651 6.52018 28.3711 6.68945C28.0977 6.85872 27.873 7.0931 27.6973 7.39258C27.528 7.68555 27.4043 8.02409 27.3262 8.4082C27.248 8.78581 27.209 9.18945 27.209 9.61914ZM35.6855 9.82422V9.61914C35.6855 8.8444 35.7962 8.13151 36.0176 7.48047C36.2389 6.82292 36.5612 6.25326 36.9844 5.77148C37.4076 5.28971 37.9284 4.91536 38.5469 4.64844C39.1654 4.375 39.875 4.23828 40.6758 4.23828C41.4766 4.23828 42.1895 4.375 42.8145 4.64844C43.4395 4.91536 43.9635 5.28971 44.3867 5.77148C44.8164 6.25326 45.1419 6.82292 45.3633 7.48047C45.5846 8.13151 45.6953 8.8444 45.6953 9.61914V9.82422C45.6953 10.5924 45.5846 11.3053 45.3633 11.9629C45.1419 12.6139 44.8164 13.1836 44.3867 13.6719C43.9635 14.1536 43.4427 14.528 42.8242 14.7949C42.2057 15.0618 41.4961 15.1953 40.6953 15.1953C39.8945 15.1953 39.1816 15.0618 38.5566 14.7949C37.9382 14.528 37.4141 14.1536 36.9844 13.6719C36.5612 13.1836 36.2389 12.6139 36.0176 11.9629C35.7962 11.3053 35.6855 10.5924 35.6855 9.82422ZM38.498 9.61914V9.82422C38.498 10.2669 38.5371 10.6803 38.6152 11.0645C38.6934 11.4486 38.8171 11.7871 38.9863 12.0801C39.1621 12.3665 39.39 12.5911 39.6699 12.7539C39.9499 12.9167 40.2917 12.998 40.6953 12.998C41.0859 12.998 41.4212 12.9167 41.7012 12.7539C41.9811 12.5911 42.2057 12.3665 42.375 12.0801C42.5443 11.7871 42.668 11.4486 42.7461 11.0645C42.8307 10.6803 42.873 10.2669 42.873 9.82422V9.61914C42.873 9.18945 42.8307 8.78581 42.7461 8.4082C42.668 8.02409 42.541 7.68555 42.3652 7.39258C42.196 7.0931 41.9714 6.85872 41.6914 6.68945C41.4115 6.52018 41.0729 6.43555 40.6758 6.43555C40.2786 6.43555 39.9401 6.52018 39.6602 6.68945C39.3867 6.85872 39.1621 7.0931 38.9863 7.39258C38.8171 7.68555 38.6934 8.02409 38.6152 8.4082C38.5371 8.78581 38.498 9.18945 38.498 9.61914ZM53.1367 12.0801C53.1367 11.8783 53.0781 11.696 52.9609 11.5332C52.8438 11.3704 52.6257 11.2207 52.3066 11.084C51.9941 10.9408 51.5417 10.8105 50.9492 10.6934C50.4154 10.5762 49.9173 10.4297 49.4551 10.2539C48.9993 10.0716 48.6022 9.85352 48.2637 9.59961C47.9316 9.3457 47.6712 9.04622 47.4824 8.70117C47.2936 8.34961 47.1992 7.94922 47.1992 7.5C47.1992 7.05729 47.2936 6.64062 47.4824 6.25C47.6777 5.85938 47.9544 5.51432 48.3125 5.21484C48.6771 4.90885 49.1198 4.67122 49.6406 4.50195C50.168 4.32617 50.7604 4.23828 51.418 4.23828C52.3359 4.23828 53.1237 4.38477 53.7812 4.67773C54.4453 4.9707 54.9531 5.37435 55.3047 5.88867C55.6628 6.39648 55.8418 6.97591 55.8418 7.62695H53.0293C53.0293 7.35352 52.9707 7.10938 52.8535 6.89453C52.7428 6.67318 52.5671 6.50065 52.3262 6.37695C52.0918 6.24674 51.7858 6.18164 51.4082 6.18164C51.0957 6.18164 50.8255 6.23698 50.5977 6.34766C50.3698 6.45182 50.194 6.59505 50.0703 6.77734C49.9531 6.95312 49.8945 7.14844 49.8945 7.36328C49.8945 7.52604 49.9271 7.67253 49.9922 7.80273C50.0638 7.92643 50.1777 8.04036 50.334 8.14453C50.4902 8.2487 50.6921 8.34635 50.9395 8.4375C51.1934 8.52214 51.5059 8.60026 51.877 8.67188C52.6387 8.82812 53.319 9.0332 53.918 9.28711C54.5169 9.53451 54.9922 9.87305 55.3438 10.3027C55.6953 10.7259 55.8711 11.2826 55.8711 11.9727C55.8711 12.4414 55.7669 12.8711 55.5586 13.2617C55.3503 13.6523 55.0508 13.9941 54.6602 14.2871C54.2695 14.5736 53.8008 14.7982 53.2539 14.9609C52.7135 15.1172 52.1048 15.1953 51.4277 15.1953C50.4447 15.1953 49.6113 15.0195 48.9277 14.668C48.2507 14.3164 47.7363 13.8704 47.3848 13.3301C47.0397 12.7832 46.8672 12.2233 46.8672 11.6504H49.5332C49.5462 12.0345 49.6439 12.3438 49.8262 12.5781C50.015 12.8125 50.2526 12.9818 50.5391 13.0859C50.832 13.1901 51.1478 13.2422 51.4863 13.2422C51.8509 13.2422 52.1536 13.1934 52.3945 13.0957C52.6354 12.9915 52.8177 12.8548 52.9414 12.6855C53.0716 12.5098 53.1367 12.3079 53.1367 12.0801ZM62.5605 15.1953C61.7402 15.1953 61.0046 15.0651 60.3535 14.8047C59.7025 14.5378 59.1491 14.1699 58.6934 13.7012C58.2441 13.2324 57.8991 12.6888 57.6582 12.0703C57.4173 11.4453 57.2969 10.7812 57.2969 10.0781V9.6875C57.2969 8.88672 57.4108 8.1543 57.6387 7.49023C57.8665 6.82617 58.1921 6.25 58.6152 5.76172C59.0449 5.27344 59.5658 4.89909 60.1777 4.63867C60.7897 4.37174 61.4798 4.23828 62.248 4.23828C62.9967 4.23828 63.6608 4.36198 64.2402 4.60938C64.8197 4.85677 65.3047 5.20833 65.6953 5.66406C66.0924 6.11979 66.3919 6.66667 66.5938 7.30469C66.7956 7.9362 66.8965 8.63932 66.8965 9.41406V10.5859H58.498V8.71094H64.1328V8.49609C64.1328 8.10547 64.0612 7.75716 63.918 7.45117C63.7812 7.13867 63.5729 6.89128 63.293 6.70898C63.013 6.52669 62.6549 6.43555 62.2188 6.43555C61.8477 6.43555 61.5286 6.51693 61.2617 6.67969C60.9948 6.84245 60.7767 7.07031 60.6074 7.36328C60.4447 7.65625 60.321 8.0013 60.2363 8.39844C60.1582 8.78906 60.1191 9.21875 60.1191 9.6875V10.0781C60.1191 10.5013 60.1777 10.8919 60.2949 11.25C60.4186 11.6081 60.5911 11.9173 60.8125 12.1777C61.0404 12.4382 61.3138 12.64 61.6328 12.7832C61.9583 12.9264 62.3262 12.998 62.7363 12.998C63.2441 12.998 63.7161 12.9004 64.1523 12.7051C64.5951 12.5033 64.9759 12.2005 65.2949 11.7969L66.6621 13.2812C66.4408 13.6003 66.138 13.9062 65.7539 14.1992C65.3763 14.4922 64.9206 14.7331 64.3867 14.9219C63.8529 15.1042 63.2441 15.1953 62.5605 15.1953ZM78.6543 4.43359V6.42578H72.502V4.43359H78.6543ZM74.0254 1.82617H76.8379V11.8164C76.8379 12.1224 76.877 12.3568 76.9551 12.5195C77.0397 12.6823 77.1634 12.7962 77.3262 12.8613C77.4889 12.9199 77.694 12.9492 77.9414 12.9492C78.1172 12.9492 78.2734 12.9427 78.4102 12.9297C78.5534 12.9102 78.6738 12.8906 78.7715 12.8711L78.7812 14.9414C78.5404 15.0195 78.2799 15.0814 78 15.127C77.7201 15.1725 77.4108 15.1953 77.0723 15.1953C76.4538 15.1953 75.9134 15.0944 75.4512 14.8926C74.9954 14.6842 74.6439 14.3522 74.3965 13.8965C74.1491 13.4408 74.0254 12.8418 74.0254 12.0996V1.82617ZM79.5527 9.82422V9.61914C79.5527 8.8444 79.6634 8.13151 79.8848 7.48047C80.1061 6.82292 80.4284 6.25326 80.8516 5.77148C81.2747 5.28971 81.7956 4.91536 82.4141 4.64844C83.0326 4.375 83.7422 4.23828 84.543 4.23828C85.3438 4.23828 86.0566 4.375 86.6816 4.64844C87.3066 4.91536 87.8307 5.28971 88.2539 5.77148C88.6836 6.25326 89.0091 6.82292 89.2305 7.48047C89.4518 8.13151 89.5625 8.8444 89.5625 9.61914V9.82422C89.5625 10.5924 89.4518 11.3053 89.2305 11.9629C89.0091 12.6139 88.6836 13.1836 88.2539 13.6719C87.8307 14.1536 87.3099 14.528 86.6914 14.7949C86.0729 15.0618 85.3633 15.1953 84.5625 15.1953C83.7617 15.1953 83.0488 15.0618 82.4238 14.7949C81.8053 14.528 81.2812 14.1536 80.8516 13.6719C80.4284 13.1836 80.1061 12.6139 79.8848 11.9629C79.6634 11.3053 79.5527 10.5924 79.5527 9.82422ZM82.3652 9.61914V9.82422C82.3652 10.2669 82.4043 10.6803 82.4824 11.0645C82.5605 11.4486 82.6842 11.7871 82.8535 12.0801C83.0293 12.3665 83.2572 12.5911 83.5371 12.7539C83.8171 12.9167 84.1589 12.998 84.5625 12.998C84.9531 12.998 85.2884 12.9167 85.5684 12.7539C85.8483 12.5911 86.0729 12.3665 86.2422 12.0801C86.4115 11.7871 86.5352 11.4486 86.6133 11.0645C86.6979 10.6803 86.7402 10.2669 86.7402 9.82422V9.61914C86.7402 9.18945 86.6979 8.78581 86.6133 8.4082C86.5352 8.02409 86.4082 7.68555 86.2324 7.39258C86.0632 7.0931 85.8385 6.85872 85.5586 6.68945C85.2786 6.52018 84.9401 6.43555 84.543 6.43555C84.1458 6.43555 83.8073 6.52018 83.5273 6.68945C83.2539 6.85872 83.0293 7.0931 82.8535 7.39258C82.6842 7.68555 82.5605 8.02409 82.4824 8.4082C82.4043 8.78581 82.3652 9.18945 82.3652 9.61914ZM97.541 12.4707V4.43359H100.354V15H97.707L97.541 12.4707ZM97.8535 10.3027L98.6836 10.2832C98.6836 10.9863 98.6022 11.6406 98.4395 12.2461C98.2767 12.8451 98.0326 13.3659 97.707 13.8086C97.3815 14.2448 96.9714 14.5866 96.4766 14.834C95.9818 15.0749 95.3991 15.1953 94.7285 15.1953C94.2142 15.1953 93.7389 15.1237 93.3027 14.9805C92.873 14.8307 92.502 14.5996 92.1895 14.2871C91.8835 13.9681 91.6426 13.5612 91.4668 13.0664C91.2975 12.5651 91.2129 11.9629 91.2129 11.2598V4.43359H94.0254V11.2793C94.0254 11.5918 94.0612 11.8555 94.1328 12.0703C94.2109 12.2852 94.3184 12.4609 94.4551 12.5977C94.5918 12.7344 94.7513 12.832 94.9336 12.8906C95.1224 12.9492 95.3307 12.9785 95.5586 12.9785C96.138 12.9785 96.5938 12.8613 96.9258 12.627C97.2643 12.3926 97.502 12.0736 97.6387 11.6699C97.7819 11.2598 97.8535 10.804 97.8535 10.3027ZM105.314 6.73828V15H102.502V4.43359H105.148L105.314 6.73828ZM108.498 4.36523L108.449 6.97266C108.312 6.95312 108.146 6.93685 107.951 6.92383C107.762 6.9043 107.59 6.89453 107.434 6.89453C107.036 6.89453 106.691 6.94661 106.398 7.05078C106.112 7.14844 105.871 7.29492 105.676 7.49023C105.487 7.68555 105.344 7.92318 105.246 8.20312C105.155 8.48307 105.103 8.80208 105.09 9.16016L104.523 8.98438C104.523 8.30078 104.592 7.67253 104.729 7.09961C104.865 6.52018 105.064 6.01562 105.324 5.58594C105.591 5.15625 105.917 4.82422 106.301 4.58984C106.685 4.35547 107.124 4.23828 107.619 4.23828C107.775 4.23828 107.935 4.2513 108.098 4.27734C108.26 4.29688 108.394 4.32617 108.498 4.36523ZM121.496 4.43359H124.045V14.6484C124.045 15.612 123.83 16.429 123.4 17.0996C122.977 17.7767 122.385 18.2878 121.623 18.6328C120.861 18.9844 119.976 19.1602 118.967 19.1602C118.524 19.1602 118.055 19.1016 117.561 18.9844C117.072 18.8672 116.604 18.6849 116.154 18.4375C115.712 18.1901 115.34 17.8776 115.041 17.5L116.281 15.8398C116.607 16.2174 116.984 16.5104 117.414 16.7188C117.844 16.9336 118.319 17.041 118.84 17.041C119.348 17.041 119.777 16.9466 120.129 16.7578C120.48 16.5755 120.751 16.3053 120.939 15.9473C121.128 15.5957 121.223 15.1693 121.223 14.668V6.875L121.496 4.43359ZM114.387 9.84375V9.63867C114.387 8.83138 114.484 8.09896 114.68 7.44141C114.882 6.77734 115.165 6.20768 115.529 5.73242C115.9 5.25716 116.35 4.88932 116.877 4.62891C117.404 4.36849 118 4.23828 118.664 4.23828C119.367 4.23828 119.956 4.36849 120.432 4.62891C120.907 4.88932 121.298 5.26042 121.604 5.74219C121.91 6.21745 122.147 6.7806 122.316 7.43164C122.492 8.07617 122.629 8.78255 122.727 9.55078V10C122.629 10.7357 122.482 11.4193 122.287 12.0508C122.092 12.6823 121.835 13.2357 121.516 13.7109C121.197 14.1797 120.799 14.5443 120.324 14.8047C119.855 15.0651 119.296 15.1953 118.645 15.1953C117.993 15.1953 117.404 15.0618 116.877 14.7949C116.356 14.528 115.91 14.1536 115.539 13.6719C115.168 13.1901 114.882 12.6237 114.68 11.9727C114.484 11.3216 114.387 10.612 114.387 9.84375ZM117.199 9.63867V9.84375C117.199 10.2799 117.242 10.6868 117.326 11.0645C117.411 11.4421 117.541 11.7773 117.717 12.0703C117.899 12.3568 118.124 12.5814 118.391 12.7441C118.664 12.9004 118.986 12.9785 119.357 12.9785C119.872 12.9785 120.292 12.8711 120.617 12.6562C120.943 12.4349 121.187 12.1322 121.35 11.748C121.512 11.3639 121.607 10.9212 121.633 10.4199V9.14062C121.62 8.73047 121.564 8.36263 121.467 8.03711C121.369 7.70508 121.232 7.42188 121.057 7.1875C120.881 6.95312 120.653 6.77083 120.373 6.64062C120.093 6.51042 119.761 6.44531 119.377 6.44531C119.006 6.44531 118.684 6.52995 118.41 6.69922C118.143 6.86198 117.919 7.08659 117.736 7.37305C117.561 7.65951 117.427 7.99805 117.336 8.38867C117.245 8.77279 117.199 9.18945 117.199 9.63867ZM131.096 15.1953C130.275 15.1953 129.54 15.0651 128.889 14.8047C128.238 14.5378 127.684 14.1699 127.229 13.7012C126.779 13.2324 126.434 12.6888 126.193 12.0703C125.952 11.4453 125.832 10.7812 125.832 10.0781V9.6875C125.832 8.88672 125.946 8.1543 126.174 7.49023C126.402 6.82617 126.727 6.25 127.15 5.76172C127.58 5.27344 128.101 4.89909 128.713 4.63867C129.325 4.37174 130.015 4.23828 130.783 4.23828C131.532 4.23828 132.196 4.36198 132.775 4.60938C133.355 4.85677 133.84 5.20833 134.23 5.66406C134.628 6.11979 134.927 6.66667 135.129 7.30469C135.331 7.9362 135.432 8.63932 135.432 9.41406V10.5859H127.033V8.71094H132.668V8.49609C132.668 8.10547 132.596 7.75716 132.453 7.45117C132.316 7.13867 132.108 6.89128 131.828 6.70898C131.548 6.52669 131.19 6.43555 130.754 6.43555C130.383 6.43555 130.064 6.51693 129.797 6.67969C129.53 6.84245 129.312 7.07031 129.143 7.36328C128.98 7.65625 128.856 8.0013 128.771 8.39844C128.693 8.78906 128.654 9.21875 128.654 9.6875V10.0781C128.654 10.5013 128.713 10.8919 128.83 11.25C128.954 11.6081 129.126 11.9173 129.348 12.1777C129.576 12.4382 129.849 12.64 130.168 12.7832C130.493 12.9264 130.861 12.998 131.271 12.998C131.779 12.998 132.251 12.9004 132.688 12.7051C133.13 12.5033 133.511 12.2005 133.83 11.7969L135.197 13.2812C134.976 13.6003 134.673 13.9062 134.289 14.1992C133.911 14.4922 133.456 14.7331 132.922 14.9219C132.388 15.1042 131.779 15.1953 131.096 15.1953ZM139.787 6.68945V15H136.975V4.43359H139.611L139.787 6.68945ZM139.377 9.3457H138.615C138.615 8.56445 138.716 7.86133 138.918 7.23633C139.12 6.60482 139.403 6.06771 139.768 5.625C140.132 5.17578 140.565 4.83398 141.066 4.59961C141.574 4.35872 142.141 4.23828 142.766 4.23828C143.26 4.23828 143.713 4.3099 144.123 4.45312C144.533 4.59635 144.885 4.82422 145.178 5.13672C145.477 5.44922 145.705 5.86263 145.861 6.37695C146.024 6.89128 146.105 7.51953 146.105 8.26172V15H143.273V8.25195C143.273 7.7832 143.208 7.41862 143.078 7.1582C142.948 6.89779 142.756 6.71549 142.502 6.61133C142.255 6.50065 141.949 6.44531 141.584 6.44531C141.206 6.44531 140.878 6.52018 140.598 6.66992C140.324 6.81966 140.096 7.02799 139.914 7.29492C139.738 7.55534 139.605 7.86133 139.514 8.21289C139.423 8.56445 139.377 8.94206 139.377 9.3457ZM154.484 12.6953V0H157.316V15H154.768L154.484 12.6953ZM147.805 9.84375V9.63867C147.805 8.83138 147.896 8.09896 148.078 7.44141C148.26 6.77734 148.527 6.20768 148.879 5.73242C149.23 5.25716 149.663 4.88932 150.178 4.62891C150.692 4.36849 151.278 4.23828 151.936 4.23828C152.554 4.23828 153.094 4.36849 153.557 4.62891C154.025 4.88932 154.423 5.26042 154.748 5.74219C155.08 6.21745 155.347 6.7806 155.549 7.43164C155.751 8.07617 155.897 8.78255 155.988 9.55078V10C155.897 10.7357 155.751 11.4193 155.549 12.0508C155.347 12.6823 155.08 13.2357 154.748 13.7109C154.423 14.1797 154.025 14.5443 153.557 14.8047C153.088 15.0651 152.541 15.1953 151.916 15.1953C151.258 15.1953 150.673 15.0618 150.158 14.7949C149.65 14.528 149.221 14.1536 148.869 13.6719C148.524 13.1901 148.26 12.6237 148.078 11.9727C147.896 11.3216 147.805 10.612 147.805 9.84375ZM150.617 9.63867V9.84375C150.617 10.2799 150.65 10.6868 150.715 11.0645C150.786 11.4421 150.9 11.7773 151.057 12.0703C151.219 12.3568 151.428 12.5814 151.682 12.7441C151.942 12.9004 152.258 12.9785 152.629 12.9785C153.111 12.9785 153.508 12.8711 153.82 12.6562C154.133 12.4349 154.37 12.1322 154.533 11.748C154.702 11.3639 154.8 10.9212 154.826 10.4199V9.14062C154.807 8.73047 154.748 8.36263 154.65 8.03711C154.559 7.70508 154.423 7.42188 154.24 7.1875C154.064 6.95312 153.843 6.77083 153.576 6.64062C153.316 6.51042 153.007 6.44531 152.648 6.44531C152.284 6.44531 151.971 6.52995 151.711 6.69922C151.451 6.86198 151.239 7.08659 151.076 7.37305C150.92 7.65951 150.803 7.99805 150.725 8.38867C150.653 8.77279 150.617 9.18945 150.617 9.63867ZM164.377 15.1953C163.557 15.1953 162.821 15.0651 162.17 14.8047C161.519 14.5378 160.965 14.1699 160.51 13.7012C160.061 13.2324 159.715 12.6888 159.475 12.0703C159.234 11.4453 159.113 10.7812 159.113 10.0781V9.6875C159.113 8.88672 159.227 8.1543 159.455 7.49023C159.683 6.82617 160.008 6.25 160.432 5.76172C160.861 5.27344 161.382 4.89909 161.994 4.63867C162.606 4.37174 163.296 4.23828 164.064 4.23828C164.813 4.23828 165.477 4.36198 166.057 4.60938C166.636 4.85677 167.121 5.20833 167.512 5.66406C167.909 6.11979 168.208 6.66667 168.41 7.30469C168.612 7.9362 168.713 8.63932 168.713 9.41406V10.5859H160.314V8.71094H165.949V8.49609C165.949 8.10547 165.878 7.75716 165.734 7.45117C165.598 7.13867 165.389 6.89128 165.109 6.70898C164.829 6.52669 164.471 6.43555 164.035 6.43555C163.664 6.43555 163.345 6.51693 163.078 6.67969C162.811 6.84245 162.593 7.07031 162.424 7.36328C162.261 7.65625 162.137 8.0013 162.053 8.39844C161.975 8.78906 161.936 9.21875 161.936 9.6875V10.0781C161.936 10.5013 161.994 10.8919 162.111 11.25C162.235 11.6081 162.408 11.9173 162.629 12.1777C162.857 12.4382 163.13 12.64 163.449 12.7832C163.775 12.9264 164.143 12.998 164.553 12.998C165.061 12.998 165.533 12.9004 165.969 12.7051C166.411 12.5033 166.792 12.2005 167.111 11.7969L168.479 13.2812C168.257 13.6003 167.954 13.9062 167.57 14.1992C167.193 14.4922 166.737 14.7331 166.203 14.9219C165.669 15.1042 165.061 15.1953 164.377 15.1953ZM173.127 6.73828V15H170.314V4.43359H172.961L173.127 6.73828ZM176.311 4.36523L176.262 6.97266C176.125 6.95312 175.959 6.93685 175.764 6.92383C175.575 6.9043 175.402 6.89453 175.246 6.89453C174.849 6.89453 174.504 6.94661 174.211 7.05078C173.924 7.14844 173.684 7.29492 173.488 7.49023C173.299 7.68555 173.156 7.92318 173.059 8.20312C172.967 8.48307 172.915 8.80208 172.902 9.16016L172.336 8.98438C172.336 8.30078 172.404 7.67253 172.541 7.09961C172.678 6.52018 172.876 6.01562 173.137 5.58594C173.404 5.15625 173.729 4.82422 174.113 4.58984C174.497 4.35547 174.937 4.23828 175.432 4.23828C175.588 4.23828 175.747 4.2513 175.91 4.27734C176.073 4.29688 176.206 4.32617 176.311 4.36523Z" fill="url(#paint0_linear_0_143)"/>
<defs>
<linearGradient id="paint0_linear_0_143" x1="-1" y1="7.89474" x2="177" y2="7.89473" gradientUnits="userSpaceOnUse">
<stop stop-color="#1BAEEE"/>
<stop offset="1" stop-color="#FF4593"/>
</linearGradient>
</defs>
</svg>
