<svg width="360" height="306" viewBox="0 0 360 306" fill="none" xmlns="http://www.w3.org/2000/svg">
<g filter="url(#filter0_i_0_1)">
<path fill-rule="evenodd" clip-rule="evenodd" d="M278.453 220L287 225.2L266.853 257.959C266.455 258.871 265.743 260.019 264.621 261.539C263.862 262.308 262.171 262.917 260.394 263.328L225.424 272L223 262.331L257.714 253.722L278.453 220Z" fill="black"/>
</g>
<g clip-path="url(#clip0_0_1)">
<g filter="url(#filter1_ii_0_1)">
<path d="M383.425 100.521C416.471 149.513 404.876 197.976 367.331 223.301C329.786 248.625 280.508 241.22 247.463 192.229C214.418 143.237 247.664 45.8866 247.664 45.8866C247.664 45.8866 350.38 51.5297 383.425 100.521Z" fill="#1691D6"/>
</g>
<g opacity="0.6" filter="url(#filter2_f_0_1)">
<ellipse rx="23.8008" ry="57.7155" transform="matrix(0.999538 -0.0303827 0.0355817 0.999367 259.388 122.185)" fill="#1691D6"/>
</g>
<g opacity="0.5" filter="url(#filter3_f_0_1)">
<ellipse rx="53.831" ry="31.0085" transform="matrix(0.998179 -0.0603202 0.0653527 0.997862 327.004 202.084)" fill="#1691D6"/>
</g>
<g opacity="0.7" filter="url(#filter4_f_0_1)">
<path d="M343.431 74.2652C368.843 87.3746 382.209 102.925 380.611 106.06C379.013 109.194 360.31 96.5923 334.898 83.4829C309.485 70.3736 274.746 58.8542 276.344 55.7198C277.942 52.5854 318.019 61.1559 343.431 74.2652Z" fill="url(#paint3_radial_0_1)"/>
</g>
<ellipse cx="289.475" cy="167.037" rx="8.15268" ry="8.19992" transform="rotate(-34 289.475 167.037)" fill="black"/>
<ellipse cx="288.34" cy="166.814" rx="3.26107" ry="3.28026" transform="rotate(-34 288.34 166.814)" fill="white"/>
<ellipse cx="343.546" cy="130.566" rx="8.15268" ry="8.19992" transform="rotate(-34 343.546 130.566)" fill="black"/>
<ellipse cx="342.411" cy="130.342" rx="3.26107" ry="3.28026" transform="rotate(-34 342.411 130.342)" fill="white"/>
<path d="M337.627 158.239C341.693 164.268 340.451 172.217 334.851 175.994C329.252 179.771 321.416 177.945 317.35 171.916C313.283 165.887 321.889 168.854 327.488 165.077C333.087 161.301 333.56 152.21 337.627 158.239Z" fill="black"/>
<path d="M337.192 164.885C339.633 168.503 338.585 173.477 334.852 175.995C331.119 178.512 326.115 177.621 323.675 174.003C321.234 170.385 326.701 171.962 330.434 169.444C334.166 166.926 334.752 161.267 337.192 164.885Z" fill="#FFD0D0"/>
<ellipse cx="303.159" cy="178.578" rx="5.70688" ry="2.46019" transform="rotate(-34 303.159 178.578)" fill="#FF9292"/>
<ellipse cx="349.12" cy="147.577" rx="5.70688" ry="2.46019" transform="rotate(-34 349.12 147.577)" fill="#FF9292"/>
</g>
<g filter="url(#filter5_i_0_1)">
<path fill-rule="evenodd" clip-rule="evenodd" d="M81.5469 220L73 225.2L93.1469 257.959C93.5449 258.871 94.2574 260.019 95.3793 261.539C96.1381 262.308 97.8289 262.917 99.6057 263.328L134.576 272L137 262.331L102.286 253.722L81.5469 220Z" fill="black"/>
</g>
<g clip-path="url(#clip1_0_1)">
<g filter="url(#filter6_ii_0_1)">
<path d="M-22.5371 100.521C-55.5824 149.513 -43.988 197.976 -6.44305 223.301C31.1019 248.625 80.3798 241.22 113.425 192.229C146.47 143.237 113.224 45.8866 113.224 45.8866C113.224 45.8866 10.5081 51.5297 -22.5371 100.521Z" fill="#1691D6"/>
</g>
<g opacity="0.6" filter="url(#filter7_f_0_1)">
<ellipse rx="23.8008" ry="57.7155" transform="matrix(-0.999538 -0.0303827 -0.0355817 0.999367 101.501 122.185)" fill="#1691D6"/>
</g>
<g opacity="0.5" filter="url(#filter8_f_0_1)">
<ellipse rx="53.831" ry="31.0085" transform="matrix(-0.998179 -0.0603202 -0.0653527 0.997862 33.8846 202.084)" fill="#1691D6"/>
</g>
<g opacity="0.7" filter="url(#filter9_f_0_1)">
<path d="M17.4571 74.2652C-7.95526 87.3746 -21.3204 102.925 -19.7228 106.06C-18.1252 109.194 0.578212 96.5923 25.9906 83.4829C51.4029 70.3736 86.1419 58.8542 84.5443 55.7198C82.9467 52.5854 42.8694 61.1559 17.4571 74.2652Z" fill="url(#paint7_radial_0_1)"/>
</g>
<ellipse rx="8.15268" ry="8.19992" transform="matrix(-0.829038 -0.559193 -0.559193 0.829038 71.4136 167.037)" fill="black"/>
<ellipse rx="3.26107" ry="3.28026" transform="matrix(-0.829038 -0.559193 -0.559193 0.829038 72.5478 166.814)" fill="white"/>
<ellipse rx="8.15268" ry="8.19992" transform="matrix(-0.829038 -0.559193 -0.559193 0.829038 17.3426 130.566)" fill="black"/>
<ellipse rx="3.26107" ry="3.28026" transform="matrix(-0.829038 -0.559193 -0.559193 0.829038 18.4768 130.342)" fill="white"/>
<path d="M23.2617 158.239C19.195 164.268 20.4375 172.217 26.0367 175.994C31.636 179.771 39.4717 177.945 43.5383 171.916C47.6049 165.887 38.9992 168.854 33.4 165.077C27.8007 161.301 27.3283 152.21 23.2617 158.239Z" fill="black"/>
<path d="M23.6958 164.885C21.2556 168.503 22.3035 173.477 26.0363 175.995C29.7692 178.512 34.7734 177.621 37.2136 174.003C39.6538 170.385 34.1875 171.962 30.4547 169.444C26.7219 166.926 26.136 161.267 23.6958 164.885Z" fill="#FFD0D0"/>
<ellipse rx="5.70688" ry="2.46019" transform="matrix(-0.829038 -0.559193 -0.559193 0.829038 57.729 178.578)" fill="#FF9292"/>
<ellipse rx="5.70688" ry="2.46019" transform="matrix(-0.829038 -0.559193 -0.559193 0.829038 11.7685 147.577)" fill="#FF9292"/>
</g>
<circle cx="136" cy="267" r="11" fill="#1BADEE"/>
<circle cx="224" cy="267" r="11" fill="#1BADEE"/>
<g filter="url(#filter10_d_0_1)">
<ellipse cx="180" cy="269" rx="45" ry="20" fill="white"/>
</g>
<g filter="url(#filter11_d_0_1)">
<ellipse cx="225" cy="267" rx="6" ry="3" transform="rotate(8 225 267)" fill="#1BAEEF"/>
</g>
<g filter="url(#filter12_d_0_1)">
<ellipse cx="137" cy="267" rx="6" ry="3" transform="rotate(-8 137 267)" fill="#1BAEEF"/>
</g>
<path d="M184.367 260.762C184.367 260.99 184.325 261.25 184.24 261.543C184.162 261.829 184.081 262.119 183.996 262.412C183.983 262.451 183.957 262.552 183.918 262.715C183.879 262.878 183.83 263.073 183.771 263.301C183.719 263.522 183.661 263.763 183.596 264.023C183.537 264.277 183.479 264.521 183.42 264.756C183.368 264.984 183.319 265.186 183.273 265.361C183.234 265.537 183.208 265.654 183.195 265.713C183.137 265.986 183.081 266.283 183.029 266.602C182.977 266.921 182.935 267.246 182.902 267.578C182.87 267.904 182.844 268.229 182.824 268.555C182.805 268.874 182.795 269.176 182.795 269.463C182.795 269.691 182.788 269.958 182.775 270.264C182.769 270.57 182.766 270.872 182.766 271.172C182.766 271.458 182.779 271.725 182.805 271.973C182.837 272.22 182.87 272.458 182.902 272.686C182.941 272.913 182.974 273.135 183 273.35C183.033 273.564 183.049 273.783 183.049 274.004C183.049 274.258 183.007 274.476 182.922 274.658C182.837 274.84 182.72 274.99 182.57 275.107C182.421 275.225 182.245 275.312 182.043 275.371C181.841 275.43 181.623 275.459 181.389 275.459C181.148 275.459 180.956 275.381 180.812 275.225C180.676 275.068 180.568 274.876 180.49 274.648C180.419 274.421 180.37 274.18 180.344 273.926C180.324 273.672 180.314 273.447 180.314 273.252C180.314 273.167 180.314 273.047 180.314 272.891C180.314 272.734 180.311 272.562 180.305 272.373C180.305 272.178 180.305 271.973 180.305 271.758C180.305 271.536 180.301 271.325 180.295 271.123C180.295 270.921 180.295 270.732 180.295 270.557C180.295 270.374 180.295 270.228 180.295 270.117C180.295 270.046 180.298 269.938 180.305 269.795C180.311 269.652 180.318 269.502 180.324 269.346C180.331 269.183 180.334 269.03 180.334 268.887C180.34 268.743 180.34 268.633 180.334 268.555C180.275 268.561 180.158 268.568 179.982 268.574C179.807 268.574 179.602 268.577 179.367 268.584C179.133 268.59 178.882 268.597 178.615 268.604C178.355 268.604 178.107 268.607 177.873 268.613C177.639 268.613 177.434 268.617 177.258 268.623C177.082 268.623 176.965 268.623 176.906 268.623C176.197 268.623 175.471 268.61 174.729 268.584C173.993 268.551 173.273 268.473 172.57 268.35C172.538 268.551 172.505 268.753 172.473 268.955C172.447 269.157 172.424 269.368 172.404 269.59C172.385 269.811 172.368 270.046 172.355 270.293C172.342 270.534 172.336 270.798 172.336 271.084C172.336 271.423 172.326 271.774 172.307 272.139C172.294 272.497 172.287 272.865 172.287 273.242C172.287 273.574 172.297 273.906 172.316 274.238C172.336 274.57 172.372 274.889 172.424 275.195C172.437 275.228 172.443 275.264 172.443 275.303C172.45 275.342 172.453 275.378 172.453 275.41C172.453 275.566 172.408 275.706 172.316 275.83C172.225 275.954 172.111 276.058 171.975 276.143C171.838 276.227 171.691 276.292 171.535 276.338C171.379 276.383 171.239 276.406 171.115 276.406C170.92 276.406 170.744 276.37 170.588 276.299C170.438 276.227 170.308 276.133 170.197 276.016C170.087 275.905 169.995 275.778 169.924 275.635C169.852 275.492 169.797 275.352 169.758 275.215C169.712 275.052 169.683 274.867 169.67 274.658C169.657 274.45 169.65 274.229 169.65 273.994C169.65 273.721 169.657 273.441 169.67 273.154C169.689 272.861 169.709 272.578 169.729 272.305C169.748 272.025 169.768 271.758 169.787 271.504C169.813 271.243 169.836 271.012 169.855 270.811C169.875 270.589 169.908 270.277 169.953 269.873C170.005 269.463 170.07 269.001 170.148 268.486C170.227 267.965 170.318 267.412 170.422 266.826C170.526 266.234 170.637 265.645 170.754 265.059C170.871 264.466 170.998 263.896 171.135 263.35C171.271 262.803 171.411 262.311 171.555 261.875C171.698 261.439 171.844 261.081 171.994 260.801C172.144 260.514 172.294 260.342 172.443 260.283C172.508 260.257 172.587 260.234 172.678 260.215C172.769 260.189 172.863 260.166 172.961 260.146C173.065 260.127 173.166 260.114 173.264 260.107C173.361 260.094 173.449 260.088 173.527 260.088C173.684 260.088 173.811 260.117 173.908 260.176C174.006 260.234 174.081 260.312 174.133 260.41C174.191 260.501 174.23 260.602 174.25 260.713C174.276 260.824 174.289 260.931 174.289 261.035C174.289 261.139 174.273 261.25 174.24 261.367C174.214 261.478 174.178 261.589 174.133 261.699C174.094 261.81 174.051 261.917 174.006 262.021C173.96 262.119 173.918 262.214 173.879 262.305C173.755 262.604 173.645 262.913 173.547 263.232C173.449 263.545 173.365 263.857 173.293 264.17C173.228 264.476 173.173 264.775 173.127 265.068C173.081 265.361 173.046 265.632 173.02 265.879C173.137 265.924 173.316 265.973 173.557 266.025C173.804 266.077 174.081 266.126 174.387 266.172C174.693 266.217 175.012 266.263 175.344 266.309C175.682 266.348 176.001 266.383 176.301 266.416C176.607 266.449 176.877 266.478 177.111 266.504C177.352 266.523 177.528 266.536 177.639 266.543C177.99 266.562 178.335 266.579 178.674 266.592C179.019 266.598 179.37 266.602 179.729 266.602C179.872 266.602 180.015 266.598 180.158 266.592C180.301 266.585 180.448 266.569 180.598 266.543C180.598 266.504 180.614 266.393 180.646 266.211C180.679 266.029 180.718 265.814 180.764 265.566C180.816 265.312 180.871 265.042 180.93 264.756C180.988 264.469 181.04 264.199 181.086 263.945C181.138 263.685 181.184 263.46 181.223 263.271C181.262 263.083 181.285 262.959 181.291 262.9C181.324 262.699 181.353 262.5 181.379 262.305C181.411 262.109 181.447 261.911 181.486 261.709C181.525 261.501 181.568 261.289 181.613 261.074C181.665 260.853 181.727 260.615 181.799 260.361C181.825 260.27 181.877 260.163 181.955 260.039C182.033 259.909 182.124 259.785 182.229 259.668C182.339 259.551 182.456 259.45 182.58 259.365C182.71 259.281 182.844 259.238 182.98 259.238C183.195 259.238 183.387 259.29 183.557 259.395C183.726 259.499 183.869 259.629 183.986 259.785C184.11 259.935 184.204 260.098 184.27 260.273C184.335 260.449 184.367 260.612 184.367 260.762ZM190.402 262.549C190.402 262.64 190.383 262.803 190.344 263.037C190.311 263.265 190.223 263.551 190.08 263.896C189.969 264.176 189.882 264.414 189.816 264.609C189.751 264.805 189.712 264.951 189.699 265.049C189.582 265.791 189.468 266.589 189.357 267.441C189.253 268.294 189.136 269.219 189.006 270.215C188.973 270.488 188.938 270.775 188.898 271.074C188.866 271.367 188.837 271.644 188.811 271.904C188.785 272.165 188.762 272.396 188.742 272.598C188.729 272.793 188.723 272.926 188.723 272.998C188.723 273.05 188.736 273.115 188.762 273.193C188.788 273.265 188.817 273.34 188.85 273.418C188.882 273.496 188.911 273.571 188.938 273.643C188.964 273.714 188.977 273.776 188.977 273.828C188.977 273.978 188.931 274.128 188.84 274.277C188.749 274.427 188.599 274.574 188.391 274.717C188.221 274.84 188.052 274.935 187.883 275C187.714 275.059 187.544 275.094 187.375 275.107C187.062 275.107 186.818 275.029 186.643 274.873C186.473 274.717 186.346 274.531 186.262 274.316C186.184 274.102 186.138 273.877 186.125 273.643C186.112 273.408 186.105 273.213 186.105 273.057C186.105 272.744 186.112 272.448 186.125 272.168C186.145 271.882 186.171 271.602 186.203 271.328C186.255 270.885 186.33 270.368 186.428 269.775C186.525 269.183 186.63 268.555 186.74 267.891C186.76 267.786 186.789 267.62 186.828 267.393C186.874 267.165 186.923 266.904 186.975 266.611C187.033 266.312 187.092 265.999 187.15 265.674C187.215 265.342 187.277 265.026 187.336 264.727C187.395 264.427 187.447 264.16 187.492 263.926C187.538 263.685 187.57 263.506 187.59 263.389C187.629 263.174 187.658 263.008 187.678 262.891C187.697 262.773 187.717 262.666 187.736 262.568C187.756 262.464 187.779 262.35 187.805 262.227C187.831 262.103 187.867 261.93 187.912 261.709L187.902 261.729C187.915 261.624 187.954 261.51 188.02 261.387C188.085 261.257 188.163 261.136 188.254 261.025C188.352 260.908 188.459 260.814 188.576 260.742C188.7 260.664 188.82 260.625 188.938 260.625C189.211 260.625 189.442 260.69 189.631 260.82C189.82 260.944 189.969 261.097 190.08 261.279C190.197 261.462 190.279 261.657 190.324 261.865C190.376 262.067 190.402 262.246 190.402 262.402V262.549Z" fill="#1BAEEF"/>
<defs>
<filter id="filter0_i_0_1" x="221" y="220" width="66" height="58" filterUnits="userSpaceOnUse" color-interpolation-filters="sRGB">
<feFlood flood-opacity="0" result="BackgroundImageFix"/>
<feBlend mode="normal" in="SourceGraphic" in2="BackgroundImageFix" result="shape"/>
<feColorMatrix in="SourceAlpha" type="matrix" values="0 0 0 0 0 0 0 0 0 0 0 0 0 0 0 0 0 0 127 0" result="hardAlpha"/>
<feOffset dx="-2" dy="6"/>
<feGaussianBlur stdDeviation="5"/>
<feComposite in2="hardAlpha" operator="arithmetic" k2="-1" k3="1"/>
<feColorMatrix type="matrix" values="0 0 0 0 1 0 0 0 0 1 0 0 0 0 1 0 0 0 0.46 0"/>
<feBlend mode="normal" in2="shape" result="effect1_innerShadow_0_1"/>
</filter>
<filter id="filter1_ii_0_1" x="232.828" y="36.62" width="170.022" height="210.167" filterUnits="userSpaceOnUse" color-interpolation-filters="sRGB">
<feFlood flood-opacity="0" result="BackgroundImageFix"/>
<feBlend mode="normal" in="SourceGraphic" in2="BackgroundImageFix" result="shape"/>
<feColorMatrix in="SourceAlpha" type="matrix" values="0 0 0 0 0 0 0 0 0 0 0 0 0 0 0 0 0 0 127 0" result="hardAlpha"/>
<feOffset dy="9.26667"/>
<feGaussianBlur stdDeviation="4.63333"/>
<feComposite in2="hardAlpha" operator="arithmetic" k2="-1" k3="1"/>
<feColorMatrix type="matrix" values="0 0 0 0 0.120833 0 0 0 0 0.7859 0 0 0 0 1 0 0 0 1 0"/>
<feBlend mode="normal" in2="shape" result="effect1_innerShadow_0_1"/>
<feColorMatrix in="SourceAlpha" type="matrix" values="0 0 0 0 0 0 0 0 0 0 0 0 0 0 0 0 0 0 127 0" result="hardAlpha"/>
<feOffset dy="-9.26667"/>
<feGaussianBlur stdDeviation="4.63333"/>
<feComposite in2="hardAlpha" operator="arithmetic" k2="-1" k3="1"/>
<feColorMatrix type="matrix" values="0 0 0 0 0.0833334 0 0 0 0 0.542 0 0 0 0 0.8 0 0 0 1 0"/>
<feBlend mode="normal" in2="effect1_innerShadow_0_1" result="effect2_innerShadow_0_1"/>
</filter>
<filter id="filter2_f_0_1" x="226.508" y="55.5016" width="65.7595" height="133.367" filterUnits="userSpaceOnUse" color-interpolation-filters="sRGB">
<feFlood flood-opacity="0" result="BackgroundImageFix"/>
<feBlend mode="normal" in="SourceGraphic" in2="BackgroundImageFix" result="shape"/>
<feGaussianBlur stdDeviation="4.5" result="effect1_foregroundBlur_0_1"/>
</filter>
<filter id="filter3_f_0_1" x="264.232" y="161.969" width="125.544" height="80.2293" filterUnits="userSpaceOnUse" color-interpolation-filters="sRGB">
<feFlood flood-opacity="0" result="BackgroundImageFix"/>
<feBlend mode="normal" in="SourceGraphic" in2="BackgroundImageFix" result="shape"/>
<feGaussianBlur stdDeviation="4.5" result="effect1_foregroundBlur_0_1"/>
</filter>
<filter id="filter4_f_0_1" x="267.291" y="46.072" width="122.448" height="69.4722" filterUnits="userSpaceOnUse" color-interpolation-filters="sRGB">
<feFlood flood-opacity="0" result="BackgroundImageFix"/>
<feBlend mode="normal" in="SourceGraphic" in2="BackgroundImageFix" result="shape"/>
<feGaussianBlur stdDeviation="4.5" result="effect1_foregroundBlur_0_1"/>
</filter>
<filter id="filter5_i_0_1" x="71" y="220" width="66" height="58" filterUnits="userSpaceOnUse" color-interpolation-filters="sRGB">
<feFlood flood-opacity="0" result="BackgroundImageFix"/>
<feBlend mode="normal" in="SourceGraphic" in2="BackgroundImageFix" result="shape"/>
<feColorMatrix in="SourceAlpha" type="matrix" values="0 0 0 0 0 0 0 0 0 0 0 0 0 0 0 0 0 0 127 0" result="hardAlpha"/>
<feOffset dx="-2" dy="6"/>
<feGaussianBlur stdDeviation="5"/>
<feComposite in2="hardAlpha" operator="arithmetic" k2="-1" k3="1"/>
<feColorMatrix type="matrix" values="0 0 0 0 1 0 0 0 0 1 0 0 0 0 1 0 0 0 0.46 0"/>
<feBlend mode="normal" in2="shape" result="effect1_innerShadow_0_1"/>
</filter>
<filter id="filter6_ii_0_1" x="-41.9626" y="36.62" width="170.022" height="210.167" filterUnits="userSpaceOnUse" color-interpolation-filters="sRGB">
<feFlood flood-opacity="0" result="BackgroundImageFix"/>
<feBlend mode="normal" in="SourceGraphic" in2="BackgroundImageFix" result="shape"/>
<feColorMatrix in="SourceAlpha" type="matrix" values="0 0 0 0 0 0 0 0 0 0 0 0 0 0 0 0 0 0 127 0" result="hardAlpha"/>
<feOffset dy="9.26667"/>
<feGaussianBlur stdDeviation="4.63333"/>
<feComposite in2="hardAlpha" operator="arithmetic" k2="-1" k3="1"/>
<feColorMatrix type="matrix" values="0 0 0 0 0.120833 0 0 0 0 0.7859 0 0 0 0 1 0 0 0 1 0"/>
<feBlend mode="normal" in2="shape" result="effect1_innerShadow_0_1"/>
<feColorMatrix in="SourceAlpha" type="matrix" values="0 0 0 0 0 0 0 0 0 0 0 0 0 0 0 0 0 0 127 0" result="hardAlpha"/>
<feOffset dy="-9.26667"/>
<feGaussianBlur stdDeviation="4.63333"/>
<feComposite in2="hardAlpha" operator="arithmetic" k2="-1" k3="1"/>
<feColorMatrix type="matrix" values="0 0 0 0 0.0833334 0 0 0 0 0.542 0 0 0 0 0.8 0 0 0 1 0"/>
<feBlend mode="normal" in2="effect1_innerShadow_0_1" result="effect2_innerShadow_0_1"/>
</filter>
<filter id="filter7_f_0_1" x="68.6208" y="55.5016" width="65.7595" height="133.367" filterUnits="userSpaceOnUse" color-interpolation-filters="sRGB">
<feFlood flood-opacity="0" result="BackgroundImageFix"/>
<feBlend mode="normal" in="SourceGraphic" in2="BackgroundImageFix" result="shape"/>
<feGaussianBlur stdDeviation="4.5" result="effect1_foregroundBlur_0_1"/>
</filter>
<filter id="filter8_f_0_1" x="-28.8875" y="161.969" width="125.544" height="80.2293" filterUnits="userSpaceOnUse" color-interpolation-filters="sRGB">
<feFlood flood-opacity="0" result="BackgroundImageFix"/>
<feBlend mode="normal" in="SourceGraphic" in2="BackgroundImageFix" result="shape"/>
<feGaussianBlur stdDeviation="4.5" result="effect1_foregroundBlur_0_1"/>
</filter>
<filter id="filter9_f_0_1" x="-28.8511" y="46.072" width="122.448" height="69.4722" filterUnits="userSpaceOnUse" color-interpolation-filters="sRGB">
<feFlood flood-opacity="0" result="BackgroundImageFix"/>
<feBlend mode="normal" in="SourceGraphic" in2="BackgroundImageFix" result="shape"/>
<feGaussianBlur stdDeviation="4.5" result="effect1_foregroundBlur_0_1"/>
</filter>
<filter id="filter10_d_0_1" x="118" y="232" width="124" height="74" filterUnits="userSpaceOnUse" color-interpolation-filters="sRGB">
<feFlood flood-opacity="0" result="BackgroundImageFix"/>
<feColorMatrix in="SourceAlpha" type="matrix" values="0 0 0 0 0 0 0 0 0 0 0 0 0 0 0 0 0 0 127 0" result="hardAlpha"/>
<feOffset/>
<feGaussianBlur stdDeviation="8.5"/>
<feComposite in2="hardAlpha" operator="out"/>
<feColorMatrix type="matrix" values="0 0 0 0 0 0 0 0 0 0 0 0 0 0 0 0 0 0 0.25 0"/>
<feBlend mode="normal" in2="BackgroundImageFix" result="effect1_dropShadow_0_1"/>
<feBlend mode="normal" in="SourceGraphic" in2="effect1_dropShadow_0_1" result="shape"/>
</filter>
<filter id="filter11_d_0_1" x="213.043" y="259.913" width="19.9131" height="14.1734" filterUnits="userSpaceOnUse" color-interpolation-filters="sRGB">
<feFlood flood-opacity="0" result="BackgroundImageFix"/>
<feColorMatrix in="SourceAlpha" type="matrix" values="0 0 0 0 0 0 0 0 0 0 0 0 0 0 0 0 0 0 127 0" result="hardAlpha"/>
<feOffset dx="-2"/>
<feGaussianBlur stdDeviation="2"/>
<feComposite in2="hardAlpha" operator="out"/>
<feColorMatrix type="matrix" values="0 0 0 0 0 0 0 0 0 0 0 0 0 0 0 0 0 0 0.25 0"/>
<feBlend mode="normal" in2="BackgroundImageFix" result="effect1_dropShadow_0_1"/>
<feBlend mode="normal" in="SourceGraphic" in2="effect1_dropShadow_0_1" result="shape"/>
</filter>
<filter id="filter12_d_0_1" x="129.043" y="259.913" width="19.9131" height="14.1734" filterUnits="userSpaceOnUse" color-interpolation-filters="sRGB">
<feFlood flood-opacity="0" result="BackgroundImageFix"/>
<feColorMatrix in="SourceAlpha" type="matrix" values="0 0 0 0 0 0 0 0 0 0 0 0 0 0 0 0 0 0 127 0" result="hardAlpha"/>
<feOffset dx="2"/>
<feGaussianBlur stdDeviation="2"/>
<feComposite in2="hardAlpha" operator="out"/>
<feColorMatrix type="matrix" values="0 0 0 0 0 0 0 0 0 0 0 0 0 0 0 0 0 0 0.25 0"/>
<feBlend mode="normal" in2="BackgroundImageFix" result="effect1_dropShadow_0_1"/>
<feBlend mode="normal" in="SourceGraphic" in2="effect1_dropShadow_0_1" result="shape"/>
</filter>
<linearGradient id="paint0_linear_0_1" x1="247.664" y1="45.8866" x2="367.331" y2="223.301" gradientUnits="userSpaceOnUse">
<stop stop-color="#1EC1FF"/>
<stop offset="1" stop-color="#1691D6"/>
</linearGradient>
<radialGradient id="paint1_radial_0_1" cx="0" cy="0" r="1" gradientUnits="userSpaceOnUse" gradientTransform="translate(23.8008 57.7155) rotate(90) scale(57.7155 23.8008)">
<stop stop-color="white"/>
<stop offset="1" stop-color="white" stop-opacity="0"/>
</radialGradient>
<radialGradient id="paint2_radial_0_1" cx="0" cy="0" r="1" gradientUnits="userSpaceOnUse" gradientTransform="translate(46.9482 44.5258) rotate(-87.8428) scale(40.3162 69.9837)">
<stop stop-color="white"/>
<stop offset="1" stop-color="white" stop-opacity="0"/>
</radialGradient>
<radialGradient id="paint3_radial_0_1" cx="0" cy="0" r="1" gradientUnits="userSpaceOnUse" gradientTransform="translate(352.952 54.0991) rotate(124.86) scale(88.8188 209.821)">
<stop stop-color="white"/>
<stop offset="1" stop-color="white" stop-opacity="0"/>
</radialGradient>
<linearGradient id="paint4_linear_0_1" x1="113.224" y1="45.8866" x2="-6.44305" y2="223.301" gradientUnits="userSpaceOnUse">
<stop stop-color="#1EC1FF"/>
<stop offset="1" stop-color="#1691D6"/>
</linearGradient>
<radialGradient id="paint5_radial_0_1" cx="0" cy="0" r="1" gradientUnits="userSpaceOnUse" gradientTransform="translate(23.8008 57.7155) rotate(90) scale(57.7155 23.8008)">
<stop stop-color="white"/>
<stop offset="1" stop-color="white" stop-opacity="0"/>
</radialGradient>
<radialGradient id="paint6_radial_0_1" cx="0" cy="0" r="1" gradientUnits="userSpaceOnUse" gradientTransform="translate(46.9482 44.5258) rotate(-87.8428) scale(40.3162 69.9837)">
<stop stop-color="white"/>
<stop offset="1" stop-color="white" stop-opacity="0"/>
</radialGradient>
<radialGradient id="paint7_radial_0_1" cx="0" cy="0" r="1" gradientUnits="userSpaceOnUse" gradientTransform="translate(7.93621 54.0991) rotate(55.1399) scale(88.8188 209.821)">
<stop stop-color="white"/>
<stop offset="1" stop-color="white" stop-opacity="0"/>
</radialGradient>
<clipPath id="clip0_0_1">
<rect width="164" height="214" fill="white" transform="translate(179.629 91.7764) rotate(-34)"/>
</clipPath>
<clipPath id="clip1_0_1">
<rect width="164" height="214" fill="white" transform="matrix(-0.829038 -0.559193 -0.559193 0.829038 181.259 91.7764)"/>
</clipPath>
</defs>
</svg>
